<mxfile host="Electron" agent="Mozilla/5.0 (Windows NT 10.0; Win64; x64) AppleWebKit/537.36 (KHTML, like Gecko) draw.io/26.0.16 Chrome/132.0.6834.196 Electron/34.2.0 Safari/537.36" version="26.0.16">
  <diagram name="Page-1" id="PQIMhucnsU9rq7yxlf0c">
    <mxGraphModel dx="1605" dy="1277" grid="0" gridSize="10" guides="1" tooltips="1" connect="1" arrows="1" fold="1" page="0" pageScale="1" pageWidth="827" pageHeight="1169" math="0" shadow="0">
      <root>
        <mxCell id="0" />
        <mxCell id="1" parent="0" />
        <mxCell id="OqorVzmxIPAmmHhw6HOZ-1" value="&lt;b&gt;sd&lt;/b&gt;&amp;nbsp;Game init" style="shape=umlFrame;whiteSpace=wrap;html=1;pointerEvents=0;width=155;height=27;" vertex="1" parent="1">
          <mxGeometry x="-461" y="-71" width="814" height="561" as="geometry" />
        </mxCell>
        <mxCell id="OqorVzmxIPAmmHhw6HOZ-2" value="gsz : Gombasz" style="html=1;whiteSpace=wrap;" vertex="1" parent="1">
          <mxGeometry x="-399" y="54" width="110" height="50" as="geometry" />
        </mxCell>
        <mxCell id="OqorVzmxIPAmmHhw6HOZ-3" value="h4 : Hatszog" style="html=1;whiteSpace=wrap;" vertex="1" parent="1">
          <mxGeometry x="177" y="317" width="110" height="50" as="geometry" />
        </mxCell>
        <mxCell id="OqorVzmxIPAmmHhw6HOZ-4" value="t1 : Tekton" style="html=1;whiteSpace=wrap;" vertex="1" parent="1">
          <mxGeometry x="-251" y="182" width="110" height="50" as="geometry" />
        </mxCell>
        <mxCell id="OqorVzmxIPAmmHhw6HOZ-6" value="k : Kor" style="html=1;whiteSpace=wrap;" vertex="1" parent="1">
          <mxGeometry x="-109" y="54" width="110" height="50" as="geometry" />
        </mxCell>
        <mxCell id="OqorVzmxIPAmmHhw6HOZ-7" value="rsz : Rovarasz" style="html=1;whiteSpace=wrap;" vertex="1" parent="1">
          <mxGeometry x="181" y="54" width="110" height="50" as="geometry" />
        </mxCell>
        <mxCell id="OqorVzmxIPAmmHhw6HOZ-9" value="t2 : Tekton" style="html=1;whiteSpace=wrap;" vertex="1" parent="1">
          <mxGeometry x="37" y="182" width="110" height="50" as="geometry" />
        </mxCell>
        <mxCell id="OqorVzmxIPAmmHhw6HOZ-10" value="g : Gomba" style="html=1;whiteSpace=wrap;" vertex="1" parent="1">
          <mxGeometry x="-399" y="182" width="110" height="50" as="geometry" />
        </mxCell>
        <mxCell id="OqorVzmxIPAmmHhw6HOZ-11" value="h3 : Hatszog" style="html=1;whiteSpace=wrap;" vertex="1" parent="1">
          <mxGeometry x="-98" y="317" width="110" height="50" as="geometry" />
        </mxCell>
        <mxCell id="OqorVzmxIPAmmHhw6HOZ-12" value="h1 : Hatszog" style="html=1;whiteSpace=wrap;" vertex="1" parent="1">
          <mxGeometry x="-401" y="410" width="110" height="50" as="geometry" />
        </mxCell>
        <mxCell id="OqorVzmxIPAmmHhw6HOZ-13" value="h2 : Hatszog" style="html=1;whiteSpace=wrap;" vertex="1" parent="1">
          <mxGeometry x="-98" y="410" width="110" height="50" as="geometry" />
        </mxCell>
        <mxCell id="OqorVzmxIPAmmHhw6HOZ-15" value="gl : GameLogic" style="html=1;whiteSpace=wrap;" vertex="1" parent="1">
          <mxGeometry x="-109" y="-62" width="110" height="50" as="geometry" />
        </mxCell>
        <mxCell id="OqorVzmxIPAmmHhw6HOZ-16" value="r : Rovar" style="html=1;whiteSpace=wrap;" vertex="1" parent="1">
          <mxGeometry x="181" y="182" width="110" height="50" as="geometry" />
        </mxCell>
        <mxCell id="OqorVzmxIPAmmHhw6HOZ-20" value="" style="endArrow=none;html=1;rounded=0;fontSize=12;startSize=8;endSize=8;curved=1;entryX=0.5;entryY=1;entryDx=0;entryDy=0;exitX=0.5;exitY=0;exitDx=0;exitDy=0;" edge="1" parent="1" source="OqorVzmxIPAmmHhw6HOZ-6" target="OqorVzmxIPAmmHhw6HOZ-15">
          <mxGeometry width="50" height="50" relative="1" as="geometry">
            <mxPoint x="-79" y="253" as="sourcePoint" />
            <mxPoint x="-29" y="203" as="targetPoint" />
          </mxGeometry>
        </mxCell>
        <mxCell id="OqorVzmxIPAmmHhw6HOZ-21" value="" style="endArrow=none;html=1;rounded=0;fontSize=12;startSize=8;endSize=8;curved=1;exitX=1;exitY=0.5;exitDx=0;exitDy=0;entryX=0;entryY=0.5;entryDx=0;entryDy=0;" edge="1" parent="1" source="OqorVzmxIPAmmHhw6HOZ-2" target="OqorVzmxIPAmmHhw6HOZ-6">
          <mxGeometry width="50" height="50" relative="1" as="geometry">
            <mxPoint x="-79" y="253" as="sourcePoint" />
            <mxPoint x="-29" y="203" as="targetPoint" />
          </mxGeometry>
        </mxCell>
        <mxCell id="OqorVzmxIPAmmHhw6HOZ-22" value="" style="endArrow=none;html=1;rounded=0;fontSize=12;startSize=8;endSize=8;curved=1;entryX=0;entryY=0.5;entryDx=0;entryDy=0;exitX=1;exitY=0.5;exitDx=0;exitDy=0;" edge="1" parent="1" source="OqorVzmxIPAmmHhw6HOZ-6" target="OqorVzmxIPAmmHhw6HOZ-7">
          <mxGeometry width="50" height="50" relative="1" as="geometry">
            <mxPoint x="-38" y="172" as="sourcePoint" />
            <mxPoint x="12" y="122" as="targetPoint" />
          </mxGeometry>
        </mxCell>
        <mxCell id="OqorVzmxIPAmmHhw6HOZ-23" value="" style="endArrow=none;html=1;rounded=0;fontSize=12;startSize=8;endSize=8;curved=1;entryX=0.5;entryY=1;entryDx=0;entryDy=0;exitX=0.5;exitY=0;exitDx=0;exitDy=0;" edge="1" parent="1" source="OqorVzmxIPAmmHhw6HOZ-10" target="OqorVzmxIPAmmHhw6HOZ-2">
          <mxGeometry width="50" height="50" relative="1" as="geometry">
            <mxPoint x="-293" y="197" as="sourcePoint" />
            <mxPoint x="-243" y="147" as="targetPoint" />
          </mxGeometry>
        </mxCell>
        <mxCell id="OqorVzmxIPAmmHhw6HOZ-24" value="" style="endArrow=none;html=1;rounded=0;fontSize=12;startSize=8;endSize=8;curved=1;entryX=0.5;entryY=1;entryDx=0;entryDy=0;exitX=0.5;exitY=0;exitDx=0;exitDy=0;" edge="1" parent="1" source="OqorVzmxIPAmmHhw6HOZ-16" target="OqorVzmxIPAmmHhw6HOZ-7">
          <mxGeometry width="50" height="50" relative="1" as="geometry">
            <mxPoint x="150" y="251" as="sourcePoint" />
            <mxPoint x="200" y="201" as="targetPoint" />
          </mxGeometry>
        </mxCell>
        <mxCell id="OqorVzmxIPAmmHhw6HOZ-26" value="" style="endArrow=none;html=1;rounded=0;fontSize=12;startSize=8;endSize=8;curved=1;exitX=1;exitY=0.5;exitDx=0;exitDy=0;entryX=0;entryY=0.5;entryDx=0;entryDy=0;" edge="1" parent="1" source="OqorVzmxIPAmmHhw6HOZ-4" target="OqorVzmxIPAmmHhw6HOZ-9">
          <mxGeometry width="50" height="50" relative="1" as="geometry">
            <mxPoint x="3" y="168" as="sourcePoint" />
            <mxPoint x="46" y="131" as="targetPoint" />
          </mxGeometry>
        </mxCell>
        <mxCell id="OqorVzmxIPAmmHhw6HOZ-27" value="" style="endArrow=none;html=1;rounded=0;fontSize=12;startSize=8;endSize=8;curved=1;entryX=0.5;entryY=1;entryDx=0;entryDy=0;" edge="1" parent="1" target="OqorVzmxIPAmmHhw6HOZ-6">
          <mxGeometry width="50" height="50" relative="1" as="geometry">
            <mxPoint x="-54" y="206" as="sourcePoint" />
            <mxPoint x="-183" y="117" as="targetPoint" />
          </mxGeometry>
        </mxCell>
        <mxCell id="OqorVzmxIPAmmHhw6HOZ-30" value="" style="endArrow=none;html=1;rounded=0;fontSize=12;startSize=8;endSize=8;curved=1;entryX=0.5;entryY=1;entryDx=0;entryDy=0;" edge="1" parent="1" target="OqorVzmxIPAmmHhw6HOZ-9">
          <mxGeometry width="50" height="50" relative="1" as="geometry">
            <mxPoint x="93" y="342" as="sourcePoint" />
            <mxPoint x="-39" y="214" as="targetPoint" />
          </mxGeometry>
        </mxCell>
        <mxCell id="OqorVzmxIPAmmHhw6HOZ-34" value="" style="endArrow=none;html=1;rounded=0;fontSize=12;startSize=8;endSize=8;curved=1;entryX=0.5;entryY=1;entryDx=0;entryDy=0;exitX=0.326;exitY=0.902;exitDx=0;exitDy=0;exitPerimeter=0;" edge="1" parent="1" source="OqorVzmxIPAmmHhw6HOZ-1" target="OqorVzmxIPAmmHhw6HOZ-4">
          <mxGeometry width="50" height="50" relative="1" as="geometry">
            <mxPoint x="-177" y="351" as="sourcePoint" />
            <mxPoint x="-127" y="301" as="targetPoint" />
          </mxGeometry>
        </mxCell>
        <mxCell id="OqorVzmxIPAmmHhw6HOZ-35" value="" style="endArrow=none;html=1;rounded=0;fontSize=12;startSize=8;endSize=8;curved=1;exitX=1;exitY=0.5;exitDx=0;exitDy=0;entryX=0;entryY=0.5;entryDx=0;entryDy=0;" edge="1" parent="1" source="OqorVzmxIPAmmHhw6HOZ-12" target="OqorVzmxIPAmmHhw6HOZ-13">
          <mxGeometry width="50" height="50" relative="1" as="geometry">
            <mxPoint x="-344" y="405" as="sourcePoint" />
            <mxPoint x="-195" y="434" as="targetPoint" />
          </mxGeometry>
        </mxCell>
        <mxCell id="OqorVzmxIPAmmHhw6HOZ-39" value="" style="endArrow=none;html=1;rounded=0;fontSize=12;startSize=8;endSize=8;curved=1;entryX=0;entryY=0.5;entryDx=0;entryDy=0;exitX=1;exitY=0.5;exitDx=0;exitDy=0;" edge="1" parent="1" source="OqorVzmxIPAmmHhw6HOZ-11" target="OqorVzmxIPAmmHhw6HOZ-3">
          <mxGeometry width="50" height="50" relative="1" as="geometry">
            <mxPoint x="19" y="313" as="sourcePoint" />
            <mxPoint x="69" y="263" as="targetPoint" />
          </mxGeometry>
        </mxCell>
        <mxCell id="OqorVzmxIPAmmHhw6HOZ-42" value="" style="endArrow=block;html=1;rounded=0;fontSize=12;startSize=8;endSize=16;curved=1;endFill=1;entryX=0.517;entryY=0.209;entryDx=0;entryDy=0;entryPerimeter=0;" edge="1" parent="1" target="OqorVzmxIPAmmHhw6HOZ-1">
          <mxGeometry width="50" height="50" relative="1" as="geometry">
            <mxPoint x="-40" y="-2" as="sourcePoint" />
            <mxPoint x="181" y="14.05" as="targetPoint" />
          </mxGeometry>
        </mxCell>
        <mxCell id="OqorVzmxIPAmmHhw6HOZ-43" value="1: &amp;lt;&amp;lt;create&amp;gt;&amp;gt;" style="edgeLabel;html=1;align=center;verticalAlign=middle;resizable=0;points=[];fontSize=12;" vertex="1" connectable="0" parent="OqorVzmxIPAmmHhw6HOZ-42">
          <mxGeometry x="0.2019" y="1" relative="1" as="geometry">
            <mxPoint x="40" y="-13" as="offset" />
          </mxGeometry>
        </mxCell>
        <mxCell id="OqorVzmxIPAmmHhw6HOZ-44" value="" style="endArrow=block;html=1;rounded=0;fontSize=12;startSize=8;endSize=16;curved=1;endFill=1;entryX=0.517;entryY=0.209;entryDx=0;entryDy=0;entryPerimeter=0;exitX=0.582;exitY=0.239;exitDx=0;exitDy=0;exitPerimeter=0;" edge="1" parent="1" source="OqorVzmxIPAmmHhw6HOZ-1">
          <mxGeometry width="50" height="50" relative="1" as="geometry">
            <mxPoint x="71" y="15" as="sourcePoint" />
            <mxPoint x="71" y="63" as="targetPoint" />
          </mxGeometry>
        </mxCell>
        <mxCell id="OqorVzmxIPAmmHhw6HOZ-45" value="3.1: &amp;lt;&amp;lt;create&amp;gt;&amp;gt;" style="edgeLabel;html=1;align=center;verticalAlign=middle;resizable=0;points=[];fontSize=12;" vertex="1" connectable="0" parent="OqorVzmxIPAmmHhw6HOZ-44">
          <mxGeometry x="0.2019" y="1" relative="1" as="geometry">
            <mxPoint y="-16" as="offset" />
          </mxGeometry>
        </mxCell>
        <mxCell id="OqorVzmxIPAmmHhw6HOZ-46" value="" style="endArrow=block;html=1;rounded=0;fontSize=12;startSize=8;endSize=16;curved=1;endFill=1;entryX=0.317;entryY=0.239;entryDx=0;entryDy=0;entryPerimeter=0;exitX=0.409;exitY=0.239;exitDx=0;exitDy=0;exitPerimeter=0;" edge="1" parent="1" source="OqorVzmxIPAmmHhw6HOZ-1" target="OqorVzmxIPAmmHhw6HOZ-1">
          <mxGeometry width="50" height="50" relative="1" as="geometry">
            <mxPoint x="-236" y="98" as="sourcePoint" />
            <mxPoint x="-236" y="146" as="targetPoint" />
          </mxGeometry>
        </mxCell>
        <mxCell id="OqorVzmxIPAmmHhw6HOZ-47" value="2.1: &amp;lt;&amp;lt;create&amp;gt;&amp;gt;" style="edgeLabel;html=1;align=center;verticalAlign=middle;resizable=0;points=[];fontSize=12;" vertex="1" connectable="0" parent="OqorVzmxIPAmmHhw6HOZ-46">
          <mxGeometry x="0.2019" y="1" relative="1" as="geometry">
            <mxPoint x="24" y="-20" as="offset" />
          </mxGeometry>
        </mxCell>
        <mxCell id="OqorVzmxIPAmmHhw6HOZ-48" value="" style="endArrow=block;html=1;rounded=0;fontSize=12;startSize=8;endSize=16;curved=1;endFill=1;entryX=0.517;entryY=0.209;entryDx=0;entryDy=0;entryPerimeter=0;" edge="1" parent="1">
          <mxGeometry width="50" height="50" relative="1" as="geometry">
            <mxPoint x="-332" y="119" as="sourcePoint" />
            <mxPoint x="-332" y="167" as="targetPoint" />
          </mxGeometry>
        </mxCell>
        <mxCell id="OqorVzmxIPAmmHhw6HOZ-49" value="2.2: &amp;lt;&amp;lt;create&amp;gt;&amp;gt;" style="edgeLabel;html=1;align=center;verticalAlign=middle;resizable=0;points=[];fontSize=12;" vertex="1" connectable="0" parent="OqorVzmxIPAmmHhw6HOZ-48">
          <mxGeometry x="0.2019" y="1" relative="1" as="geometry">
            <mxPoint x="45" y="-14" as="offset" />
          </mxGeometry>
        </mxCell>
        <mxCell id="OqorVzmxIPAmmHhw6HOZ-50" value="" style="endArrow=block;html=1;rounded=0;fontSize=12;startSize=8;endSize=16;curved=1;endFill=1;entryX=0.517;entryY=0.209;entryDx=0;entryDy=0;entryPerimeter=0;" edge="1" parent="1">
          <mxGeometry width="50" height="50" relative="1" as="geometry">
            <mxPoint x="251" y="119" as="sourcePoint" />
            <mxPoint x="251" y="167" as="targetPoint" />
          </mxGeometry>
        </mxCell>
        <mxCell id="OqorVzmxIPAmmHhw6HOZ-51" value="3.2: &amp;lt;&amp;lt;create&amp;gt;&amp;gt;" style="edgeLabel;html=1;align=center;verticalAlign=middle;resizable=0;points=[];fontSize=12;" vertex="1" connectable="0" parent="OqorVzmxIPAmmHhw6HOZ-50">
          <mxGeometry x="0.2019" y="1" relative="1" as="geometry">
            <mxPoint x="46" y="-12" as="offset" />
          </mxGeometry>
        </mxCell>
        <mxCell id="OqorVzmxIPAmmHhw6HOZ-54" value="" style="endArrow=block;html=1;rounded=0;fontSize=12;startSize=8;endSize=16;curved=1;endFill=1;entryX=0.317;entryY=0.239;entryDx=0;entryDy=0;entryPerimeter=0;exitX=0.409;exitY=0.239;exitDx=0;exitDy=0;exitPerimeter=0;" edge="1" parent="1">
          <mxGeometry width="50" height="50" relative="1" as="geometry">
            <mxPoint x="-64" y="195" as="sourcePoint" />
            <mxPoint x="-139" y="195" as="targetPoint" />
          </mxGeometry>
        </mxCell>
        <mxCell id="OqorVzmxIPAmmHhw6HOZ-55" value="4.1: &amp;lt;&amp;lt;create&amp;gt;&amp;gt;" style="edgeLabel;html=1;align=center;verticalAlign=middle;resizable=0;points=[];fontSize=12;" vertex="1" connectable="0" parent="OqorVzmxIPAmmHhw6HOZ-54">
          <mxGeometry x="0.2019" y="1" relative="1" as="geometry">
            <mxPoint x="11" y="-21" as="offset" />
          </mxGeometry>
        </mxCell>
        <mxCell id="OqorVzmxIPAmmHhw6HOZ-56" value="" style="endArrow=block;html=1;rounded=0;fontSize=12;startSize=8;endSize=16;curved=1;endFill=1;entryX=0.517;entryY=0.209;entryDx=0;entryDy=0;entryPerimeter=0;exitX=0.582;exitY=0.239;exitDx=0;exitDy=0;exitPerimeter=0;" edge="1" parent="1">
          <mxGeometry width="50" height="50" relative="1" as="geometry">
            <mxPoint x="-28" y="194" as="sourcePoint" />
            <mxPoint x="30" y="194" as="targetPoint" />
          </mxGeometry>
        </mxCell>
        <mxCell id="OqorVzmxIPAmmHhw6HOZ-57" value="5.1: &amp;lt;&amp;lt;create&amp;gt;&amp;gt;" style="edgeLabel;html=1;align=center;verticalAlign=middle;resizable=0;points=[];fontSize=12;" vertex="1" connectable="0" parent="OqorVzmxIPAmmHhw6HOZ-56">
          <mxGeometry x="0.2019" y="1" relative="1" as="geometry">
            <mxPoint y="-16" as="offset" />
          </mxGeometry>
        </mxCell>
        <mxCell id="OqorVzmxIPAmmHhw6HOZ-58" value="" style="endArrow=block;html=1;rounded=0;fontSize=12;startSize=8;endSize=16;curved=1;endFill=1;entryX=0.317;entryY=0.239;entryDx=0;entryDy=0;entryPerimeter=0;exitX=0.409;exitY=0.239;exitDx=0;exitDy=0;exitPerimeter=0;" edge="1" parent="1">
          <mxGeometry width="50" height="50" relative="1" as="geometry">
            <mxPoint x="-209" y="423" as="sourcePoint" />
            <mxPoint x="-284" y="423" as="targetPoint" />
          </mxGeometry>
        </mxCell>
        <mxCell id="OqorVzmxIPAmmHhw6HOZ-59" value="4.2: &amp;lt;&amp;lt;create&amp;gt;&amp;gt;" style="edgeLabel;html=1;align=center;verticalAlign=middle;resizable=0;points=[];fontSize=12;" vertex="1" connectable="0" parent="OqorVzmxIPAmmHhw6HOZ-58">
          <mxGeometry x="0.2019" y="1" relative="1" as="geometry">
            <mxPoint x="11" y="-21" as="offset" />
          </mxGeometry>
        </mxCell>
        <mxCell id="OqorVzmxIPAmmHhw6HOZ-61" value="" style="endArrow=block;html=1;rounded=0;fontSize=12;startSize=8;endSize=16;curved=1;endFill=1;entryX=0.517;entryY=0.209;entryDx=0;entryDy=0;entryPerimeter=0;exitX=0.582;exitY=0.239;exitDx=0;exitDy=0;exitPerimeter=0;" edge="1" parent="1">
          <mxGeometry width="50" height="50" relative="1" as="geometry">
            <mxPoint x="-173" y="422" as="sourcePoint" />
            <mxPoint x="-115" y="422" as="targetPoint" />
          </mxGeometry>
        </mxCell>
        <mxCell id="OqorVzmxIPAmmHhw6HOZ-62" value="4.3: &amp;lt;&amp;lt;create&amp;gt;&amp;gt;" style="edgeLabel;html=1;align=center;verticalAlign=middle;resizable=0;points=[];fontSize=12;" vertex="1" connectable="0" parent="OqorVzmxIPAmmHhw6HOZ-61">
          <mxGeometry x="0.2019" y="1" relative="1" as="geometry">
            <mxPoint y="-16" as="offset" />
          </mxGeometry>
        </mxCell>
        <mxCell id="OqorVzmxIPAmmHhw6HOZ-63" value="" style="endArrow=block;html=1;rounded=0;fontSize=12;startSize=8;endSize=16;curved=1;endFill=1;entryX=0.317;entryY=0.239;entryDx=0;entryDy=0;entryPerimeter=0;" edge="1" parent="1">
          <mxGeometry width="50" height="50" relative="1" as="geometry">
            <mxPoint x="73" y="330" as="sourcePoint" />
            <mxPoint x="15" y="330" as="targetPoint" />
          </mxGeometry>
        </mxCell>
        <mxCell id="OqorVzmxIPAmmHhw6HOZ-64" value="5.2: &amp;lt;&amp;lt;create&amp;gt;&amp;gt;" style="edgeLabel;html=1;align=center;verticalAlign=middle;resizable=0;points=[];fontSize=12;" vertex="1" connectable="0" parent="OqorVzmxIPAmmHhw6HOZ-63">
          <mxGeometry x="0.2019" y="1" relative="1" as="geometry">
            <mxPoint x="1" y="-26" as="offset" />
          </mxGeometry>
        </mxCell>
        <mxCell id="OqorVzmxIPAmmHhw6HOZ-65" value="" style="endArrow=block;html=1;rounded=0;fontSize=12;startSize=8;endSize=16;curved=1;endFill=1;entryX=0.517;entryY=0.209;entryDx=0;entryDy=0;entryPerimeter=0;exitX=0.582;exitY=0.239;exitDx=0;exitDy=0;exitPerimeter=0;" edge="1" parent="1">
          <mxGeometry width="50" height="50" relative="1" as="geometry">
            <mxPoint x="110" y="329" as="sourcePoint" />
            <mxPoint x="168" y="329" as="targetPoint" />
          </mxGeometry>
        </mxCell>
        <mxCell id="OqorVzmxIPAmmHhw6HOZ-66" value="5.3: &amp;lt;&amp;lt;create&amp;gt;&amp;gt;" style="edgeLabel;html=1;align=center;verticalAlign=middle;resizable=0;points=[];fontSize=12;" vertex="1" connectable="0" parent="OqorVzmxIPAmmHhw6HOZ-65">
          <mxGeometry x="0.2019" y="1" relative="1" as="geometry">
            <mxPoint x="-7" y="-17" as="offset" />
          </mxGeometry>
        </mxCell>
      </root>
    </mxGraphModel>
  </diagram>
</mxfile>
